<svg width="256" height="256" viewBox="0 0 256 256" fill="none" xmlns="http://www.w3.org/2000/svg" role="img" aria-labelledby="title desc">
  <title id="title">Jarvis Cyber logo</title>
  <desc id="desc">A futuristic shield with a neural circuit core representing a secure AI cyber assistant.</desc>
  <defs>
    <radialGradient id="bg" cx="50%" cy="38%" r="70%">
      <stop offset="0%" stop-color="#123B63"/>
      <stop offset="52%" stop-color="#071827"/>
      <stop offset="100%" stop-color="#020617"/>
    </radialGradient>
    <linearGradient id="shield" x1="67" y1="35" x2="190" y2="218" gradientUnits="userSpaceOnUse">
      <stop stop-color="#67E8F9"/>
      <stop offset="0.48" stop-color="#38BDF8"/>
      <stop offset="1" stop-color="#2563EB"/>
    </linearGradient>
    <linearGradient id="core" x1="90" y1="78" x2="168" y2="176" gradientUnits="userSpaceOnUse">
      <stop stop-color="#ECFEFF"/>
      <stop offset="0.42" stop-color="#7DD3FC"/>
      <stop offset="1" stop-color="#22C55E"/>
    </linearGradient>
    <filter id="glow" x="-40%" y="-40%" width="180%" height="180%" color-interpolation-filters="sRGB">
      <feGaussianBlur stdDeviation="6" result="blur"/>
      <feColorMatrix in="blur" type="matrix" values="0 0 0 0 0.094 0 0 0 0 0.765 0 0 0 0 1 0 0 0 0.9 0"/>
      <feBlend in="SourceGraphic" mode="screen"/>
    </filter>
  </defs>

  <rect width="256" height="256" rx="56" fill="url(#bg)"/>
  <path opacity="0.28" d="M35 204C76 166 105 179 139 137C171 97 194 84 222 81" stroke="#38BDF8" stroke-width="2"/>
  <path opacity="0.18" d="M23 73C65 91 82 64 124 82C165 99 172 136 229 135" stroke="#22C55E" stroke-width="2"/>

  <path
    d="M128 27L196 53V111C196 159 168 199 128 219C88 199 60 159 60 111V53L128 27Z"
    fill="#071827"
    stroke="url(#shield)"
    stroke-width="8"
    stroke-linejoin="round"
    filter="url(#glow)"
  />
  <path
    d="M128 49L176 67V112C176 147 158 177 128 194C98 177 80 147 80 112V67L128 49Z"
    fill="rgba(15, 23, 42, 0.74)"
    stroke="#164E63"
    stroke-width="3"
  />

  <circle cx="128" cy="121" r="39" fill="#020617" stroke="url(#core)" stroke-width="6"/>
  <circle cx="128" cy="121" r="14" fill="url(#core)" filter="url(#glow)"/>
  <path d="M128 82V62" stroke="#67E8F9" stroke-width="6" stroke-linecap="round"/>
  <path d="M128 180V157" stroke="#38BDF8" stroke-width="6" stroke-linecap="round"/>
  <path d="M89 121H68" stroke="#38BDF8" stroke-width="6" stroke-linecap="round"/>
  <path d="M188 121H167" stroke="#38BDF8" stroke-width="6" stroke-linecap="round"/>
  <path d="M101 94L86 79" stroke="#22C55E" stroke-width="5" stroke-linecap="round"/>
  <path d="M155 94L170 79" stroke="#22C55E" stroke-width="5" stroke-linecap="round"/>
  <path d="M101 148L86 163" stroke="#22C55E" stroke-width="5" stroke-linecap="round"/>
  <path d="M155 148L170 163" stroke="#22C55E" stroke-width="5" stroke-linecap="round"/>

  <circle cx="128" cy="62" r="6" fill="#ECFEFF"/>
  <circle cx="68" cy="121" r="6" fill="#ECFEFF"/>
  <circle cx="188" cy="121" r="6" fill="#ECFEFF"/>
  <circle cx="86" cy="79" r="5" fill="#BBF7D0"/>
  <circle cx="170" cy="79" r="5" fill="#BBF7D0"/>
  <circle cx="86" cy="163" r="5" fill="#BBF7D0"/>
  <circle cx="170" cy="163" r="5" fill="#BBF7D0"/>
</svg>
